<svg xmlns="http://www.w3.org/2000/svg" viewBox="0 0 200 200" fill="none">
  <!-- 装饰小星星 -->
  <path d="M150 35 l3 7 7 1 -5 5 1 7 -6 -3 -6 3 1 -7 -5 -5 7 -1 z" fill="#d4b8e8" stroke="#a888c4" stroke-width="1.5" stroke-linejoin="round"/>
  <path d="M40 145 l2.5 6 6 0.8 -4.3 4.2 0.8 6 -5.5 -2.5 -5.5 2.5 0.8 -6 -4.3 -4.2 6 -0.8 z" fill="#ffe4ec" stroke="#d4a0b4" stroke-width="1.5" stroke-linejoin="round"/>

  <!-- 月亮主体 - 分段彩色 -->
  <!-- 顶部粉色段 -->
  <path d="M55 90 A50 50 0 0 1 145 90 L130 95 A35 35 0 0 0 70 95 Z" fill="#f4b8c8" stroke="#c8889c" stroke-width="2.5" stroke-linejoin="round"/>
  <!-- 中部紫色段 -->
  <path d="M70 95 A35 35 0 0 0 130 95 L120 110 A22 22 0 0 1 80 110 Z" fill="#b8a8d8" stroke="#8880b0" stroke-width="2.5" stroke-linejoin="round"/>
  <!-- 底部蓝色段 -->
  <path d="M80 110 A22 22 0 0 1 120 110 A50 50 0 0 1 55 90 L65 110 A30 30 0 0 0 135 110 A50 50 0 0 1 55 90 Z" fill="#a8c8e8" stroke="#7090b8" stroke-width="2.5" stroke-linejoin="round"/>

  <!-- 简化版 - 重新构造清晰的三段月牙 -->
</svg>
